<svg xmlns="http://www.w3.org/2000/svg" xmlns:xlink="http://www.w3.org/1999/xlink" width="165.925537109375" height="91.04979094783224" viewBox="0 0 165.925537109375 91.04979094783224" fill="none">
<path fill-rule="evenodd" fill="#000000" opacity="0.06" d="M31.3387 8.56518C32.6689 7.56751 32.9385 5.68043 31.9408 4.35024C30.9431 3.02006 29.0561 2.75048 27.7259 3.74812C24.968 5.81647 19.4905 12.1185 15.7292 20.3341C12.7758 26.7847 11.8844 33.3187 12.9207 38.455C13.9431 43.5226 17.1854 48.1004 22.8914 48.1295C25.8969 48.2239 28.3472 46.9822 30.269 45.2029C31.1059 44.4278 31.8588 43.538 32.5417 42.5856C32.8599 43.3008 33.2573 43.9839 33.7467 44.6178C35.3403 46.6818 37.6817 47.9252 40.5795 48.2008C44.1451 48.5396 46.9727 46.7544 49.061 44.5482C51.125 42.3678 52.7956 39.4508 54.1842 36.6306C54.4401 36.111 54.692 35.5821 54.9395 35.0505C56.0735 37.1016 57.7257 38.9115 59.8887 40.1624C60.6578 40.607 61.4814 40.9451 62.3431 41.1887C63.0328 42.8191 64.0945 44.305 65.5055 45.4902C68.6584 48.1389 73.175 48.9888 78.2841 47.2654C82.5242 45.8351 86.3878 42.622 89.7687 39.2675C89.8232 40.6892 90.1126 42.109 90.7713 43.3888C92.1173 46.0036 94.6784 47.4234 97.9533 47.4234C99.6072 47.4234 101.628 46.8938 103.598 46.1023C104.878 45.5882 106.236 44.9229 107.592 44.113C107.154 45.2845 106.708 46.4425 106.252 47.5812C103.52 49.2545 100.465 50.695 97.1146 51.6663C93.0119 52.8562 90.0126 53.7919 87.8118 54.7459C85.597 55.706 83.9301 56.7918 82.6683 58.4142C80.3431 61.0686 79.7998 65.0822 80.9287 68.4035C82.1661 72.0435 85.424 74.9758 90.5106 75.1407C94.2155 75.2605 97.404 73.2537 99.9938 70.6201C102.61 67.959 104.988 64.2914 107.136 60.1949C108.524 57.5458 109.851 54.6496 111.108 51.6199C117.586 47.2712 122.233 41.9336 124.819 38.3071C124.94 39.0149 125.112 39.6646 125.331 40.254C125.825 41.5881 126.689 42.9486 128.081 43.6875C128.812 44.0752 129.715 44.2956 130.686 44.1428C131.667 43.9882 132.479 43.4905 133.067 42.8485C133.823 42.0256 134.803 40.7263 135.845 39.2746C136.02 40.9442 136.516 42.6023 137.511 44.0765C139.523 47.0588 142.49 48.381 145.603 48.2225C148.543 48.073 151.362 46.6319 153.61 44.6519C154.858 43.553 154.98 41.6506 153.881 40.4025C152.782 39.1545 150.88 39.0333 149.632 40.1322C148.084 41.4948 146.508 42.1474 145.296 42.2092C144.258 42.2621 143.315 41.9129 142.501 40.7076C141.686 39.4993 141.535 37.2973 142.232 34.4889C142.908 31.7701 144.136 29.4692 144.773 28.6974C147.584 25.2953 149.921 25.108 151.183 25.2678C151.828 25.3493 152.354 25.5461 152.699 25.7129C152.872 25.8154 153.009 25.9091 153.107 25.9762L153.116 25.9831C153.177 26.0247 153.281 26.0947 153.407 26.1659C153.454 26.1927 153.602 26.2758 153.798 26.3539C153.879 26.3855 154.124 26.4814 154.454 26.5324C154.617 26.5576 154.947 26.5962 155.358 26.5351C155.767 26.4743 156.516 26.2718 157.142 25.5838C157.811 24.8499 157.949 23.9986 157.925 23.427C157.902 22.9098 157.752 22.5241 157.674 22.3458C157.515 21.9842 157.32 21.7402 157.266 21.6723C157.122 21.4904 156.985 21.3646 156.947 21.3279C156.835 21.2248 156.731 21.1444 156.672 21.0992C156.42 20.9062 156.075 20.6853 155.67 20.4693C155.642 20.4549 155.615 20.4403 155.587 20.4257C154.524 19.8251 152.729 19.0467 150.378 19.0235C146.923 18.9893 142.93 20.5735 138.753 25.0824C137.375 26.5689 135.322 29.5184 133.48 32.1645L133.404 32.2737C132.404 33.7104 131.462 35.062 130.644 36.1909C130.587 34.7639 130.791 32.7013 131.614 29.9108C131.982 28.6675 132.261 27.6632 132.452 26.8811C132.624 26.1793 132.788 25.4243 132.809 24.8029C132.817 24.6281 132.817 24.3581 132.767 24.0485C132.728 23.7996 132.603 23.1581 132.102 22.5385C131.447 21.7265 130.429 21.3013 129.389 21.4082C128.596 21.4897 128.054 21.8538 127.85 21.9995C127.409 22.3168 127.105 22.7028 126.976 22.8681C126.803 23.0926 126.635 23.3391 126.482 23.5752C125.894 24.4861 125.089 25.941 124.22 27.5111L124.104 27.7192C123.236 29.2887 122.258 31.0572 121.225 32.8187C120.282 34.4275 118.288 37.2266 115.361 40.2363C116.324 37.3986 117.226 34.565 118.061 31.8165C119.331 27.641 118.823 24.4281 117.37 22.1031C116 19.9115 114.075 18.9761 113.349 18.6712C111.62 17.9303 109.33 17.4549 106.505 18.0049C106.318 18.0413 106.13 18.0819 105.94 18.127C103.515 18.6469 100.884 19.8376 98.2574 21.961C97.9172 22.236 97.5733 22.5284 97.2261 22.8355C97.2124 22.847 97.1983 22.8584 97.1842 22.8699C96.626 23.3088 96.0898 23.8158 95.5803 24.3726C93.8789 26.0354 92.1294 27.9473 90.4059 29.8308C89.3483 30.9866 88.3006 32.1317 87.2796 33.202C83.4463 37.2209 79.842 40.3852 76.3593 41.5599C73.3981 42.5592 71.3224 42.1437 69.971 41.3081C71.2207 41.0645 72.4542 40.7143 73.6317 40.2865C78.2633 38.6042 82.9248 35.4195 85.7372 31.0816C87.574 28.2481 87.9801 24.6785 85.8669 21.9122C83.8083 19.2175 80.1811 18.3791 76.3061 19.0153C67.9174 20.3926 62.8699 27.2786 61.651 34.0121C60.4283 32.8566 59.5803 31.2349 59.2511 29.447C58.8169 27.0901 59.3515 24.8471 60.634 23.3852C61.7178 22.1499 61.6108 20.2737 60.3935 19.1696C59.1762 18.0656 57.2985 18.1418 56.1745 19.3406C54.719 20.8932 53.4833 23.4954 52.4106 25.8941C52.0413 26.7201 51.6767 27.559 51.309 28.4045C50.5065 30.2498 49.6903 32.1269 48.7824 33.9706C47.4618 36.6527 46.112 38.9049 44.688 40.4088C43.2891 41.8872 42.1618 42.3026 41.1492 42.2062C39.7382 42.0724 38.9872 41.5522 38.5128 40.938C37.9733 40.239 37.5605 39.105 37.4736 37.4491C37.3307 34.7275 38.1108 31.2728 39.5616 27.9894C39.9165 27.2096 40.2667 26.4917 40.621 25.8441C41.5744 24.3778 42.2725 23.2497 42.7338 22.4673C42.9666 22.073 43.1543 21.741 43.2874 21.4867C43.3476 21.3718 43.43 21.2091 43.5002 21.0425C43.5253 20.9836 43.6109 20.7802 43.6732 20.5202L43.6741 20.5158C43.6968 20.421 43.7895 20.0344 43.7454 19.54C43.7227 19.2829 43.6433 18.7441 43.2797 18.177C42.8495 17.506 42.1424 16.9949 41.2813 16.8384C40.5491 16.7053 39.9681 16.8763 39.6937 16.9778C39.395 17.0886 39.1769 17.2235 39.0604 17.3015C38.8279 17.457 38.668 17.6113 38.6065 17.6721C38.4654 17.8113 38.3617 17.9401 38.3188 17.9942C38.2155 18.1244 38.1178 18.2632 38.0409 18.376C37.8763 18.6169 37.6689 18.9414 37.427 19.3348C36.9386 20.1302 36.2555 21.2975 35.4032 22.8367C34.9299 23.6915 34.4867 24.5824 34.0806 25.4976C33.4962 26.7801 32.9372 28.1287 32.3937 29.4409L32.3435 29.562C31.3924 31.8591 30.465 34.0989 29.4276 36.1056C28.3629 38.1652 27.294 39.7513 26.1781 40.7845C25.1258 41.7586 24.1425 42.1504 23.0573 42.1105C23.0204 42.1092 22.9836 42.1086 22.9465 42.1086C21.2963 42.1086 19.5652 40.9421 18.8231 37.2641C18.0916 33.639 18.6554 28.407 21.2039 22.8406C24.6422 15.3308 29.5493 9.90711 31.3387 8.56518ZM132.604 10.1088C131.992 9.55804 131.013 9.95634 130.96 10.7784L130.826 12.843C130.811 13.0641 130.724 13.2739 130.575 13.4386L129.192 14.9772C128.641 15.5898 129.039 16.5677 129.862 16.6212L131.926 16.7553C132.147 16.7698 132.357 16.8581 132.522 17.0062L134.061 18.3894C134.673 18.9401 135.651 18.5419 135.704 17.7198L135.839 15.6551C135.853 15.4341 135.941 15.2244 136.089 15.0596L137.473 13.521C138.023 12.9083 137.625 11.9305 136.803 11.877L134.738 11.7428C134.516 11.7284 134.307 11.6401 134.143 11.492L132.604 10.1088ZM97.9396 31.4446C98.5936 30.2399 99.3021 29.2348 99.9768 28.4875C100.348 28.1288 100.716 27.7862 101.081 27.4615C103.729 25.3026 105.784 24.3625 107.288 23.996C108.987 23.6529 110.286 23.9085 110.984 24.2088L111.013 24.2208C111.094 24.2546 111.584 24.4903 112.003 25.0174C112.362 25.4696 112.814 26.3085 112.69 27.8929C112.386 31.797 109.811 35.1667 106.392 37.6893C104.714 38.9269 102.934 39.88 101.353 40.5152C99.7069 41.1766 98.507 41.4021 97.9533 41.4021C96.5892 41.4021 96.2898 40.9534 96.1249 40.6327C95.8064 40.0142 95.6258 38.7875 95.9549 36.9346C96.2698 35.1622 96.9866 33.2009 97.9396 31.4446ZM71.576 34.627C70.1059 35.1609 68.727 35.473 67.4933 35.6002C68.1726 30.6425 71.7473 25.8657 77.2816 24.957C79.9469 24.5194 80.8876 25.3132 81.082 25.5676C81.2215 25.7503 81.566 26.4465 80.6846 27.8063C78.7401 30.8056 75.2731 33.284 71.576 34.627ZM115.223 55.7295C115.241 54.0669 116.603 52.7332 118.265 52.7506C133.193 52.9072 148.142 53.9579 163.153 56.248C164.797 56.4986 165.926 58.0343 165.675 59.6781C165.424 61.3219 163.889 62.4509 162.244 62.2003C147.552 59.9591 132.89 58.9255 118.202 58.7716C116.54 58.7542 115.206 57.392 115.223 55.7295ZM78.531 56.6722C78.5905 58.334 77.2916 59.7293 75.6301 59.7885C34.1401 61.2735 14.0248 66.6611 5.14178 69.0406C4.77949 69.1376 4.43591 69.2295 4.11033 69.3162C2.5034 69.7433 0.85443 68.787 0.427241 67.18C5.40912e-05 65.5729 0.956414 63.9241 2.56334 63.497C2.88236 63.412 3.21778 63.3223 3.57019 63.2279C12.7112 60.782 33.275 55.2792 75.4146 53.7712C77.0765 53.7117 78.4718 55.0106 78.531 56.6722ZM98.7919 57.4495C100.036 57.0888 101.242 56.6741 102.411 56.2141C102.209 56.6152 102.007 57.0106 101.803 57.3993C99.7788 61.2606 97.7232 64.3412 95.7004 66.3984C93.6508 68.4829 91.9942 69.1643 90.7054 69.1224C88.1961 69.0412 87.0835 67.8004 86.6299 66.4657C86.0823 64.855 86.4998 63.1523 87.2224 62.3538C87.2816 62.2882 87.3378 62.2203 87.391 62.1504C87.8052 61.6029 88.4708 61.0228 90.207 60.2705C92.0036 59.4914 94.6433 58.6524 98.7919 57.4495Z">
</path>
<path fill-rule="evenodd" fill="rgba(0, 0, 0, 0.04)" d="M40.621 25.8441C41.5744 24.3778 42.2725 23.2497 42.7338 22.4673C42.9666 22.073 43.1543 21.741 43.2874 21.4867C43.3476 21.3718 43.43 21.2091 43.5002 21.0425C43.5253 20.9836 43.6109 20.7802 43.6732 20.5202L43.6741 20.5158L43.6741 20.5157C43.6969 20.4206 43.7895 20.0341 43.7454 19.54C43.7227 19.2829 43.6433 18.7441 43.2797 18.177C42.8495 17.506 42.1424 16.9949 41.2813 16.8384C40.5491 16.7053 39.9681 16.8763 39.6937 16.9778C39.395 17.0886 39.1769 17.2235 39.0604 17.3015C38.8279 17.457 38.668 17.6113 38.6065 17.6721C38.4654 17.8113 38.3617 17.9401 38.3188 17.9942C38.2155 18.1244 38.1178 18.2632 38.0409 18.376C37.8763 18.6169 37.6689 18.9414 37.427 19.3348C36.9386 20.1302 36.2555 21.2975 35.4032 22.8367C34.9299 23.6915 34.4867 24.5824 34.0806 25.4976C33.4962 26.7801 32.9372 28.1287 32.3937 29.4409L32.3435 29.562C31.3924 31.8591 30.465 34.0989 29.4276 36.1056C28.3629 38.1652 27.294 39.7513 26.1781 40.7845C25.1258 41.7586 24.1425 42.1504 23.0573 42.1105C23.0204 42.1092 22.9836 42.1086 22.9465 42.1086C21.2963 42.1086 19.5652 40.9421 18.8231 37.2641C18.0916 33.639 18.6554 28.407 21.2039 22.8406C24.6422 15.3308 29.5493 9.90711 31.3387 8.56518C32.6689 7.56751 32.9385 5.68043 31.9408 4.35024C30.9431 3.02006 29.0561 2.75048 27.7259 3.74812C24.968 5.81647 19.4905 12.1185 15.7292 20.3341C12.7758 26.7847 11.8844 33.3187 12.9207 38.455C13.9431 43.5226 17.1854 48.1004 22.8914 48.1295C25.8969 48.2239 28.3472 46.9822 30.269 45.2029C30.8367 44.6771 31.3658 44.0985 31.8605 43.4835C32.0951 43.1918 32.322 42.8919 32.5417 42.5856C32.6929 42.9256 32.8621 43.2583 33.0506 43.5819C33.2585 43.9391 33.49 44.2852 33.7467 44.6178C35.3403 46.6818 37.6817 47.9252 40.5795 48.2008C44.1451 48.5396 46.9727 46.7544 49.061 44.5482C51.125 42.3678 52.7956 39.4508 54.1842 36.6306C54.2633 36.4699 54.342 36.3085 54.4204 36.1463C54.5954 35.7838 54.7685 35.4178 54.9395 35.0505C55.1324 35.3994 55.3403 35.7413 55.5632 36.0747C56.6504 37.7012 58.0936 39.1243 59.8887 40.1624C60.6578 40.607 61.4814 40.9451 62.3431 41.1887C63.0328 42.8191 64.0945 44.305 65.5055 45.4902C68.6584 48.1389 73.175 48.9888 78.2841 47.2654C82.1376 45.9655 85.6802 43.1931 88.832 40.1802C89.1482 39.878 89.4604 39.5733 89.7687 39.2675C89.7852 39.6972 89.8231 40.1267 89.8862 40.5522C90.0319 41.5346 90.3117 42.4958 90.7713 43.3888C92.1173 46.0036 94.6784 47.4234 97.9533 47.4234C99.6072 47.4234 101.628 46.8938 103.598 46.1023C104.45 45.76 105.337 45.3506 106.235 44.8762C106.685 44.6381 107.139 44.3836 107.592 44.113C107.408 44.6052 107.222 45.095 107.035 45.582C106.777 46.2542 106.516 46.921 106.252 47.5812C103.52 49.2545 100.465 50.695 97.1146 51.6663C93.0119 52.8562 90.0126 53.7919 87.8118 54.7459C85.597 55.706 83.9301 56.7918 82.6683 58.4142C80.3431 61.0686 79.7998 65.0822 80.9287 68.4035C82.1661 72.0435 85.424 74.9758 90.5106 75.1407C94.2155 75.2605 97.404 73.2537 99.9938 70.6201C102.61 67.959 104.988 64.2914 107.136 60.1949C108.524 57.5458 109.851 54.6496 111.108 51.6199C116.968 47.686 121.33 42.9428 124.023 39.3892C124.306 39.0145 124.572 38.653 124.819 38.3071C124.897 38.7629 124.996 39.1947 125.115 39.6017C125.181 39.8267 125.253 40.0442 125.331 40.254C125.825 41.5881 126.689 42.9486 128.081 43.6875C128.812 44.0752 129.715 44.2956 130.686 44.1428C131.667 43.9882 132.479 43.4905 133.067 42.8485C133.615 42.2521 134.28 41.4054 135.002 40.4318C135.276 40.0621 135.558 39.6741 135.845 39.2746C135.894 39.7407 135.968 40.2059 136.071 40.6665C136.336 41.8557 136.794 43.0139 137.511 44.0765C139.523 47.0588 142.49 48.381 145.603 48.2225C148.543 48.073 151.362 46.6319 153.61 44.6519C154.858 43.553 154.98 41.6506 153.881 40.4025C152.782 39.1545 150.88 39.0333 149.632 40.1322C148.084 41.4948 146.508 42.1474 145.296 42.2092C144.258 42.2621 143.315 41.9129 142.501 40.7076C141.686 39.4993 141.535 37.2973 142.232 34.4889C142.908 31.7701 144.136 29.4692 144.773 28.6974C147.584 25.2953 149.921 25.108 151.183 25.2678C151.828 25.3493 152.354 25.5461 152.699 25.7129C152.872 25.8154 153.009 25.9091 153.107 25.9762L153.116 25.9831C153.177 26.0247 153.281 26.0947 153.407 26.1659C153.454 26.1927 153.602 26.2758 153.798 26.3539C153.879 26.3855 154.124 26.4814 154.454 26.5324C154.617 26.5576 154.947 26.5962 155.358 26.5351C155.767 26.4743 156.516 26.2718 157.142 25.5838C157.811 24.8499 157.949 23.9986 157.925 23.427C157.902 22.9098 157.752 22.5241 157.674 22.3458C157.515 21.9842 157.32 21.7402 157.266 21.6723C157.122 21.4904 156.985 21.3646 156.947 21.3279C156.835 21.2248 156.731 21.1444 156.672 21.0992C156.42 20.9062 156.075 20.6853 155.67 20.4693C155.642 20.4549 155.615 20.4403 155.587 20.4257C154.524 19.8251 152.729 19.0467 150.378 19.0235C146.923 18.9893 142.93 20.5735 138.753 25.0824C137.375 26.5689 135.322 29.5184 133.48 32.1645L133.404 32.2737C132.801 33.1407 132.218 33.9768 131.671 34.7517C131.312 35.2607 130.968 35.7433 130.644 36.1909C130.623 35.675 130.637 35.0761 130.701 34.3897C130.815 33.1774 131.089 31.6925 131.614 29.9108C131.982 28.6675 132.261 27.6632 132.452 26.8811C132.624 26.1793 132.788 25.4243 132.809 24.8029C132.817 24.6281 132.817 24.3581 132.767 24.0485C132.728 23.7996 132.603 23.1581 132.102 22.5385C131.447 21.7265 130.429 21.3013 129.389 21.4082C128.596 21.4897 128.054 21.8538 127.85 21.9995C127.409 22.3168 127.105 22.7028 126.976 22.8681C126.803 23.0926 126.635 23.3391 126.482 23.5752C125.894 24.4861 125.089 25.941 124.22 27.5111L124.104 27.7192C123.236 29.2887 122.258 31.0572 121.225 32.8187C120.471 34.1044 119.046 36.1503 117.01 38.4564C116.499 39.0359 115.949 39.6319 115.361 40.2363C115.618 39.4778 115.871 38.7195 116.12 37.963C116.801 35.8897 117.449 33.8303 118.061 31.8165C119.331 27.641 118.823 24.4281 117.37 22.1031C116 19.9115 114.075 18.9761 113.349 18.6712C111.62 17.9303 109.33 17.4549 106.505 18.0049C106.318 18.0413 106.13 18.0819 105.94 18.127C103.515 18.6469 100.884 19.8376 98.2574 21.961C97.9172 22.236 97.5733 22.5284 97.2261 22.8355C97.2124 22.847 97.1983 22.8584 97.1842 22.8699C96.626 23.3088 96.0898 23.8158 95.5803 24.3726C93.8789 26.0354 92.1294 27.9473 90.4059 29.8308C89.3483 30.9866 88.3006 32.1317 87.2796 33.202C83.4463 37.2209 79.842 40.3852 76.3593 41.5599C74.3904 42.2243 72.8129 42.2633 71.5795 41.9691C70.958 41.8209 70.4238 41.5881 69.971 41.3081C70.5072 41.2036 71.0404 41.0794 71.5675 40.938C72.2689 40.7497 72.9594 40.5307 73.6317 40.2865C78.2633 38.6042 82.9248 35.4195 85.7372 31.0816C87.574 28.2481 87.9801 24.6785 85.8669 21.9122C83.8083 19.2175 80.1811 18.3791 76.3061 19.0153C68.406 20.3124 63.4692 26.4952 61.9029 32.8351C61.806 33.2272 61.722 33.6199 61.651 34.0121C61.3497 33.7274 61.0712 33.4143 60.8175 33.0775C60.0419 32.0473 59.4992 30.7943 59.2511 29.447C58.8169 27.0901 59.3515 24.8471 60.634 23.3852C61.7178 22.1499 61.6108 20.2737 60.3935 19.1696C59.1762 18.0656 57.2985 18.1418 56.1745 19.3406C54.719 20.8932 53.4833 23.4954 52.4106 25.8941C52.0413 26.7201 51.6767 27.559 51.309 28.4045C50.5065 30.2498 49.6903 32.1269 48.7824 33.9706C47.4618 36.6527 46.112 38.9049 44.688 40.4088C43.2891 41.8872 42.1618 42.3026 41.1492 42.2062C39.7382 42.0724 38.9872 41.5522 38.5128 40.938C37.9733 40.239 37.5605 39.105 37.4736 37.4491C37.3307 34.7275 38.1108 31.2728 39.5616 27.9894C39.9165 27.2096 40.2667 26.4917 40.621 25.8441ZM31.1408 4.95025C31.8071 5.83858 31.627 7.09892 30.7386 7.76518Q25.0545 12.0282 20.2946 22.4243Q16.4867 30.7415 17.8429 37.4619Q18.9822 43.1086 22.9465 43.1086Q22.9857 43.1086 23.0205 43.1098Q25.0574 43.1847 26.8575 41.5183Q28.5798 39.9235 30.3159 36.5648Q31.3725 34.5211 33.2667 29.9465L33.2676 29.9443L33.3176 29.8235Q34.4087 27.1892 34.9946 25.9032Q35.5849 24.5729 36.278 23.3212Q37.4294 21.2419 38.2789 19.8585Q38.6365 19.2768 38.8669 18.9396Q38.9999 18.7447 39.1022 18.6157Q39.2041 18.4872 39.3094 18.3834Q39.4513 18.2431 39.6169 18.1323Q39.8159 17.999 40.041 17.9156Q40.5596 17.7236 41.1025 17.8223Q41.965 17.9791 42.4379 18.7168Q42.7057 19.1344 42.7494 19.6289Q42.7789 19.9602 42.7017 20.2827L42.7006 20.2872L42.6998 20.2909Q42.6557 20.4734 42.5786 20.6542Q42.5129 20.8103 42.4014 21.023Q42.2145 21.38 41.8723 21.9594Q41.0777 23.3073 39.7826 25.299L39.7619 25.3308L39.7437 25.3642Q39.2323 26.2989 38.6469 27.5852Q36.2404 33.0318 36.4749 37.5015Q36.6119 40.1118 37.7214 41.5493Q38.8351 42.9912 41.0544 43.2017Q43.2262 43.4085 45.4142 41.0964Q47.444 38.9526 49.6795 34.4124Q50.5981 32.547 52.2247 28.8063L53.3235 26.3023Q55.4257 21.6015 56.904 20.0246C57.6547 19.2239 58.9087 19.173 59.7217 19.9104C60.5347 20.6477 60.6062 21.9007 59.8822 22.7257Q57.4969 25.4448 58.2676 29.628Q58.8388 32.7304 60.9641 34.7389L62.3061 36.0071L62.635 34.1902Q63.571 29.0194 67.033 25.1743Q70.861 20.9227 76.4681 20.0021Q82.4047 19.0274 85.0722 22.5192Q87.7898 26.0767 84.8981 30.5376Q81.0034 36.5449 73.2902 39.3466Q71.5342 39.9846 69.7797 40.3265L67.2723 40.8152L69.4451 42.1586Q72.3641 43.9635 76.6789 42.5075Q81.2599 40.9622 88.0031 33.8922Q89.0272 32.8187 91.1301 30.5208L91.1437 30.5059Q94.5965 26.7323 96.2792 25.0878L96.2992 25.0683L96.3181 25.0477Q97.0508 24.2469 97.8191 23.6425L97.8661 23.6039L97.875 23.5965L97.8775 23.5944L97.8887 23.5845Q98.4068 23.1262 98.8862 22.7386Q102.381 19.9126 106.15 19.1048L106.161 19.1025L106.171 19.0999Q106.435 19.0372 106.696 18.9864Q110.031 18.3372 112.962 19.5931Q115.213 20.5389 116.522 22.6332Q118.733 26.1701 117.105 31.5256Q115.759 35.9509 114.414 39.915L116.078 40.9335Q119.977 36.9241 122.088 33.3244Q123.136 31.5371 124.979 28.2042L125.095 27.9954Q126.752 25.0011 127.322 24.1182Q127.566 23.7416 127.766 23.4823Q128.101 23.0508 128.433 22.8122Q128.922 22.4614 129.491 22.403C130.192 22.3309 130.882 22.6182 131.324 23.1666Q131.685 23.6139 131.78 24.2058Q131.822 24.4723 131.81 24.7681Q131.788 25.3885 131.481 26.6437Q131.209 27.7567 130.655 29.6277Q129.532 33.4343 129.645 36.2313L129.762 39.1148L131.454 36.7774Q132.318 35.5851 134.226 32.8437L134.301 32.7358Q138.154 27.1993 139.486 25.762Q144.854 19.9689 150.368 20.0234Q152.887 20.0483 155.095 21.2963L155.108 21.3037L155.199 21.3517Q155.718 21.6284 156.064 21.8926Q156.184 21.9847 156.257 22.0517L156.27 22.0643Q156.394 22.1816 156.484 22.2954L156.485 22.2961Q156.652 22.5065 156.758 22.7472Q156.909 23.0926 156.926 23.469Q156.961 24.2981 156.403 24.9106Q155.921 25.4404 155.212 25.5459Q154.909 25.5909 154.607 25.5442Q154.384 25.5097 154.168 25.4251Q154.029 25.3695 153.898 25.2948Q153.795 25.2362 153.697 25.1687L153.674 25.1527Q153.418 24.9761 153.208 24.8523L153.172 24.8309L153.135 24.8127Q152.278 24.3982 151.309 24.2757Q147.525 23.7967 144.002 28.0608Q142.281 30.1461 141.261 34.2479Q140.098 38.9333 141.672 41.2672Q143.062 43.3243 145.347 43.2079Q147.793 43.0832 150.293 40.8827C151.126 40.1491 152.397 40.2302 153.13 41.0633C153.864 41.8967 153.783 43.1676 152.95 43.9015Q149.399 47.0282 145.552 47.2238Q140.998 47.4558 138.34 43.517Q137.104 41.6865 136.839 39.17L136.565 36.5573L135.033 38.6914Q133.26 41.1598 132.329 42.1732Q131.582 42.9893 130.531 43.1549Q129.513 43.315 128.55 42.8043Q127.046 42.0058 126.268 39.906Q125.969 39.1009 125.804 38.138L125.398 35.7717L124.004 37.7265Q118.49 45.4603 110.551 50.7897L110.301 50.9578L110.185 51.2365Q108.214 55.9833 106.25 59.7306Q102.769 66.3712 99.2808 69.9189Q94.9874 74.2849 90.5431 74.1413Q83.8618 73.9246 81.8755 68.0817Q80.1014 62.8621 83.4205 59.0731L83.4397 59.0512L83.4577 59.0281Q84.9886 57.0596 88.2095 55.6634Q90.8105 54.5359 97.3931 52.6268Q102.209 51.2307 106.775 48.434L107.058 48.2606L107.181 47.9525Q107.854 46.2685 108.529 44.4629L109.526 41.7928L107.079 43.2545Q105.177 44.3904 103.225 45.1745Q100.117 46.4234 97.9533 46.4234Q93.4581 46.4234 91.6604 42.9312C91.0753 41.7943 90.817 40.5068 90.7679 39.2291L90.6806 36.954L89.0643 38.5576Q82.9322 44.6421 77.9645 46.3179Q70.8872 48.7052 66.1487 44.7245Q64.2499 43.1295 63.2641 40.7991L63.077 40.357L62.6151 40.2264C61.8379 40.0067 61.0884 39.7008 60.3893 39.2967Q57.509 37.6311 55.8147 34.5667L54.8631 32.8456L54.033 34.6284Q53.6407 35.4708 53.2871 36.1888Q50.783 41.2744 48.3348 43.8607Q44.7981 47.5971 40.6742 47.2053Q36.7173 46.8289 34.5383 44.0067Q33.9015 43.1819 33.4553 42.1791L32.7459 40.5847L31.729 42.0029Q30.6941 43.4462 29.5896 44.4691Q26.5912 47.2452 22.9227 47.13L22.9096 47.1296L22.8965 47.1296Q15.6836 47.0928 13.9009 38.2572Q12.2865 30.2556 16.6384 20.7503Q21.8238 9.42454 28.3259 4.54812C29.2142 3.88186 30.4745 4.06192 31.1408 4.95025ZM130.96 10.7784C131.013 9.95634 131.992 9.55804 132.604 10.1088L134.143 11.492C134.307 11.6401 134.516 11.7284 134.738 11.7428L136.803 11.877C137.625 11.9305 138.023 12.9083 137.473 13.521L136.089 15.0596C135.941 15.2244 135.853 15.4341 135.839 15.6551L135.704 17.7198C135.651 18.5419 134.673 18.9401 134.061 18.3894L132.522 17.0062C132.357 16.8581 132.147 16.7698 131.926 16.7553L129.862 16.6212C129.039 16.5677 128.641 15.5898 129.192 14.9772L130.575 13.4386C130.724 13.2739 130.811 13.0641 130.826 12.843L130.96 10.7784ZM131.956 10.8715L131.824 12.9081C131.795 13.3543 131.616 13.7781 131.316 14.1096L129.954 15.6251L131.991 15.7574C132.436 15.7865 132.859 15.9643 133.191 16.2627L134.708 17.6267L134.841 15.59C134.87 15.1454 135.047 14.7232 135.345 14.3917L136.71 12.8731L134.673 12.7407C134.228 12.7118 133.806 12.5338 133.474 12.2356L131.956 10.8715ZM99.2345 27.8174Q98.0714 29.1057 97.0607 30.9675L97.0606 30.9677Q95.4826 33.876 94.9703 36.7597Q94.4664 39.5962 95.2356 41.09Q95.9103 42.4021 97.9533 42.4021Q99.339 42.4021 101.725 41.4432Q104.496 40.3304 106.985 38.494Q113.226 33.8903 113.687 27.9706Q113.86 25.749 112.786 24.3955Q112.171 23.6217 111.399 23.2983L111.379 23.2901Q109.574 22.514 107.09 23.0158L107.07 23.0197L107.051 23.0245Q104.041 23.7582 100.449 26.6864L100.433 26.7L100.416 26.7144Q99.8749 27.1961 99.2823 27.768L99.2576 27.7919L99.2345 27.8174ZM67.5959 36.5949Q69.6778 36.3803 71.9173 35.567Q78.363 33.2254 81.5237 28.3502Q82.8739 26.2673 81.8766 24.9604Q80.674 23.3867 77.1196 23.9702Q72.7766 24.6833 69.8111 28.1053Q67.079 31.2581 66.5026 35.4644L66.3298 36.7254L67.5959 36.5949ZM99.9768 28.4875C99.3021 29.2348 98.5936 30.2399 97.9396 31.4446C96.9866 33.2009 96.2698 35.1622 95.9549 36.9346C95.6258 38.7875 95.8064 40.0142 96.1249 40.6327C96.2898 40.9534 96.5892 41.4021 97.9533 41.4021C98.507 41.4021 99.7069 41.1766 101.353 40.5152C102.934 39.88 104.714 38.9269 106.392 37.6893C109.811 35.1667 112.386 31.797 112.69 27.8929C112.814 26.3085 112.362 25.4696 112.003 25.0174C111.584 24.4903 111.094 24.2546 111.013 24.2208L110.984 24.2088C110.286 23.9085 108.987 23.6529 107.288 23.996C105.784 24.3625 103.729 25.3026 101.081 27.4615C100.716 27.7862 100.348 28.1288 99.9768 28.4875ZM68.5254 35.4556C69.4798 35.2879 70.5036 35.0165 71.576 34.627C75.2731 33.284 78.7401 30.8056 80.6846 27.8063C81.566 26.4465 81.2215 25.7503 81.082 25.5676C80.8876 25.3132 79.9469 24.5194 77.2816 24.957C72.131 25.8027 68.6777 29.9988 67.676 34.5729C67.6014 34.9136 67.5404 35.2565 67.4933 35.6002C67.8271 35.5658 68.1715 35.5178 68.5254 35.4556ZM118.265 52.7506C116.603 52.7332 115.241 54.0669 115.223 55.7295C115.206 57.392 116.54 58.7542 118.202 58.7716C132.89 58.9255 147.552 59.9591 162.244 62.2003C163.889 62.4509 165.424 61.3219 165.675 59.6781C165.926 58.0343 164.797 56.4986 163.153 56.248C148.142 53.9579 133.193 52.9072 118.265 52.7506ZM118.213 57.7717C117.102 57.76 116.212 56.8504 116.223 55.7399C116.235 54.6296 117.145 53.7389 118.255 53.7505Q141.769 53.9972 163.002 57.2366C164.101 57.404 164.854 58.4295 164.687 59.5277C164.519 60.625 163.493 61.379 162.395 61.2117Q141.437 58.0151 118.213 57.7717ZM75.6301 59.7885C77.2916 59.7293 78.5905 58.334 78.531 56.6722C78.4718 55.0106 77.0765 53.7117 75.4146 53.7712C33.275 55.2792 12.7112 60.782 3.57019 63.2279C3.21778 63.3223 2.88236 63.412 2.56334 63.497C0.956414 63.9241 5.40912e-05 65.5729 0.427241 67.18C0.85443 68.787 2.5034 69.7433 4.11033 69.3162C4.43591 69.2295 4.77949 69.1376 5.14178 69.0406C14.0248 66.6611 34.1401 61.2735 75.6301 59.7885ZM102.045 55.2836Q100.293 55.9729 98.5134 56.489Q92.1762 58.3265 89.8094 59.3529Q87.4943 60.3561 86.5958 61.5441Q86.5395 61.6179 86.4809 61.6829Q84.6395 63.7178 85.6831 66.7875Q86.7733 69.9956 90.6729 70.1219Q93.356 70.209 96.4135 67.0995Q99.484 63.9766 102.689 57.8633Q103 57.2694 103.304 56.6628L104.478 54.3258L102.045 55.2836ZM75.4504 54.7706C76.56 54.7308 77.4921 55.5982 77.5317 56.7078L77.5317 56.7079C77.5714 57.8175 76.704 58.7496 75.5944 58.7892Q33.9885 60.2781 4.88303 68.0746L3.85213 68.3501C2.78021 68.635 1.67896 67.9963 1.39368 66.9231C1.10842 65.8499 1.7471 64.7487 2.82022 64.4634L3.82835 64.194L3.82965 64.1937Q33.4253 56.2745 75.4504 54.7706ZM101.023 56.7322C100.293 56.99 99.5495 57.2298 98.7919 57.4495C94.6433 58.6524 92.0036 59.4914 90.207 60.2705C88.4708 61.0228 87.8052 61.6029 87.391 62.1504C87.3378 62.2203 87.2816 62.2882 87.2224 62.3538C86.4998 63.1523 86.0823 64.855 86.6299 66.4657C87.0835 67.8004 88.1961 69.0412 90.7054 69.1224C91.9942 69.1643 93.6508 68.4829 95.7004 66.3984C97.6982 64.3665 99.7281 61.3364 101.728 57.5418C101.753 57.4944 101.778 57.447 101.803 57.3993C102.007 57.0106 102.209 56.6152 102.411 56.2141C101.954 56.3939 101.491 56.5668 101.023 56.7322Z">
</path>
<g mask="url(#mask-0)" opacity="0.2">
<g filter="url(#filter_1)">
<rect x="117.3939208984375" y="3.0778778042383763" width="17.735143661499023" height="88.21439361572266" transform="rotate(30.722913039462334 117.3939208984375 3.0778778042383763)" fill="#FFFFFF">
</rect>
</g>
</g>
<defs>
<mask id="mask-0" style="mask-type:alpha" maskUnits="userSpaceOnUse">
<path fill-rule="evenodd" fill="#000000" opacity="0.06" d="M31.3387 8.56518C32.6689 7.56751 32.9385 5.68043 31.9408 4.35024C30.9431 3.02006 29.0561 2.75048 27.7259 3.74812C24.968 5.81647 19.4905 12.1185 15.7292 20.3341C12.7758 26.7847 11.8844 33.3187 12.9207 38.455C13.9431 43.5226 17.1854 48.1004 22.8914 48.1295C25.8969 48.2239 28.3472 46.9822 30.269 45.2029C31.1059 44.4278 31.8588 43.538 32.5417 42.5856C32.8599 43.3008 33.2573 43.9839 33.7467 44.6178C35.3403 46.6818 37.6817 47.9252 40.5795 48.2008C44.1451 48.5396 46.9727 46.7544 49.061 44.5482C51.125 42.3678 52.7956 39.4508 54.1842 36.6306C54.4401 36.111 54.692 35.5821 54.9395 35.0505C56.0735 37.1016 57.7257 38.9115 59.8887 40.1624C60.6578 40.607 61.4814 40.9451 62.3431 41.1887C63.0328 42.8191 64.0945 44.305 65.5055 45.4902C68.6584 48.1389 73.175 48.9888 78.2841 47.2654C82.5242 45.8351 86.3878 42.622 89.7687 39.2675C89.8232 40.6892 90.1126 42.109 90.7713 43.3888C92.1173 46.0036 94.6784 47.4234 97.9533 47.4234C99.6072 47.4234 101.628 46.8938 103.598 46.1023C104.878 45.5882 106.236 44.9229 107.592 44.113C107.154 45.2845 106.708 46.4425 106.252 47.5812C103.52 49.2545 100.465 50.695 97.1146 51.6663C93.0119 52.8562 90.0126 53.7919 87.8118 54.7459C85.597 55.706 83.9301 56.7918 82.6683 58.4142C80.3431 61.0686 79.7998 65.0822 80.9287 68.4035C82.1661 72.0435 85.424 74.9758 90.5106 75.1407C94.2155 75.2605 97.404 73.2537 99.9938 70.6201C102.61 67.959 104.988 64.2914 107.136 60.1949C108.524 57.5458 109.851 54.6496 111.108 51.6199C117.586 47.2712 122.233 41.9336 124.819 38.3071C124.94 39.0149 125.112 39.6646 125.331 40.254C125.825 41.5881 126.689 42.9486 128.081 43.6875C128.812 44.0752 129.715 44.2956 130.686 44.1428C131.667 43.9882 132.479 43.4905 133.067 42.8485C133.823 42.0256 134.803 40.7263 135.845 39.2746C136.02 40.9442 136.516 42.6023 137.511 44.0765C139.523 47.0588 142.49 48.381 145.603 48.2225C148.543 48.073 151.362 46.6319 153.61 44.6519C154.858 43.553 154.98 41.6506 153.881 40.4025C152.782 39.1545 150.88 39.0333 149.632 40.1322C148.084 41.4948 146.508 42.1474 145.296 42.2092C144.258 42.2621 143.315 41.9129 142.501 40.7076C141.686 39.4993 141.535 37.2973 142.232 34.4889C142.908 31.7701 144.136 29.4692 144.773 28.6974C147.584 25.2953 149.921 25.108 151.183 25.2678C151.828 25.3493 152.354 25.5461 152.699 25.7129C152.872 25.8154 153.009 25.9091 153.107 25.9762L153.116 25.9831C153.177 26.0247 153.281 26.0947 153.407 26.1659C153.454 26.1927 153.602 26.2758 153.798 26.3539C153.879 26.3855 154.124 26.4814 154.454 26.5324C154.617 26.5576 154.947 26.5962 155.358 26.5351C155.767 26.4743 156.516 26.2718 157.142 25.5838C157.811 24.8499 157.949 23.9986 157.925 23.427C157.902 22.9098 157.752 22.5241 157.674 22.3458C157.515 21.9842 157.32 21.7402 157.266 21.6723C157.122 21.4904 156.985 21.3646 156.947 21.3279C156.835 21.2248 156.731 21.1444 156.672 21.0992C156.42 20.9062 156.075 20.6853 155.67 20.4693C155.642 20.4549 155.615 20.4403 155.587 20.4257C154.524 19.8251 152.729 19.0467 150.378 19.0235C146.923 18.9893 142.93 20.5735 138.753 25.0824C137.375 26.5689 135.322 29.5184 133.48 32.1645L133.404 32.2737C132.404 33.7104 131.462 35.062 130.644 36.1909C130.587 34.7639 130.791 32.7013 131.614 29.9108C131.982 28.6675 132.261 27.6632 132.452 26.8811C132.624 26.1793 132.788 25.4243 132.809 24.8029C132.817 24.6281 132.817 24.3581 132.767 24.0485C132.728 23.7996 132.603 23.1581 132.102 22.5385C131.447 21.7265 130.429 21.3013 129.389 21.4082C128.596 21.4897 128.054 21.8538 127.85 21.9995C127.409 22.3168 127.105 22.7028 126.976 22.8681C126.803 23.0926 126.635 23.3391 126.482 23.5752C125.894 24.4861 125.089 25.941 124.22 27.5111L124.104 27.7192C123.236 29.2887 122.258 31.0572 121.225 32.8187C120.282 34.4275 118.288 37.2266 115.361 40.2363C116.324 37.3986 117.226 34.565 118.061 31.8165C119.331 27.641 118.823 24.4281 117.37 22.1031C116 19.9115 114.075 18.9761 113.349 18.6712C111.62 17.9303 109.33 17.4549 106.505 18.0049C106.318 18.0413 106.13 18.0819 105.94 18.127C103.515 18.6469 100.884 19.8376 98.2574 21.961C97.9172 22.236 97.5733 22.5284 97.2261 22.8355C97.2124 22.847 97.1983 22.8584 97.1842 22.8699C96.626 23.3088 96.0898 23.8158 95.5803 24.3726C93.8789 26.0354 92.1294 27.9473 90.4059 29.8308C89.3483 30.9866 88.3006 32.1317 87.2796 33.202C83.4463 37.2209 79.842 40.3852 76.3593 41.5599C73.3981 42.5592 71.3224 42.1437 69.971 41.3081C71.2207 41.0645 72.4542 40.7143 73.6317 40.2865C78.2633 38.6042 82.9248 35.4195 85.7372 31.0816C87.574 28.2481 87.9801 24.6785 85.8669 21.9122C83.8083 19.2175 80.1811 18.3791 76.3061 19.0153C67.9174 20.3926 62.8699 27.2786 61.651 34.0121C60.4283 32.8566 59.5803 31.2349 59.2511 29.447C58.8169 27.0901 59.3515 24.8471 60.634 23.3852C61.7178 22.1499 61.6108 20.2737 60.3935 19.1696C59.1762 18.0656 57.2985 18.1418 56.1745 19.3406C54.719 20.8932 53.4833 23.4954 52.4106 25.8941C52.0413 26.7201 51.6767 27.559 51.309 28.4045C50.5065 30.2498 49.6903 32.1269 48.7824 33.9706C47.4618 36.6527 46.112 38.9049 44.688 40.4088C43.2891 41.8872 42.1618 42.3026 41.1492 42.2062C39.7382 42.0724 38.9872 41.5522 38.5128 40.938C37.9733 40.239 37.5605 39.105 37.4736 37.4491C37.3307 34.7275 38.1108 31.2728 39.5616 27.9894C39.9165 27.2096 40.2667 26.4917 40.621 25.8441C41.5744 24.3778 42.2725 23.2497 42.7338 22.4673C42.9666 22.073 43.1543 21.741 43.2874 21.4867C43.3476 21.3718 43.43 21.2091 43.5002 21.0425C43.5253 20.9836 43.6109 20.7802 43.6732 20.5202L43.6741 20.5158C43.6968 20.421 43.7895 20.0344 43.7454 19.54C43.7227 19.2829 43.6433 18.7441 43.2797 18.177C42.8495 17.506 42.1424 16.9949 41.2813 16.8384C40.5491 16.7053 39.9681 16.8763 39.6937 16.9778C39.395 17.0886 39.1769 17.2235 39.0604 17.3015C38.8279 17.457 38.668 17.6113 38.6065 17.6721C38.4654 17.8113 38.3617 17.9401 38.3188 17.9942C38.2155 18.1244 38.1178 18.2632 38.0409 18.376C37.8763 18.6169 37.6689 18.9414 37.427 19.3348C36.9386 20.1302 36.2555 21.2975 35.4032 22.8367C34.9299 23.6915 34.4867 24.5824 34.0806 25.4976C33.4962 26.7801 32.9372 28.1287 32.3937 29.4409L32.3435 29.562C31.3924 31.8591 30.465 34.0989 29.4276 36.1056C28.3629 38.1652 27.294 39.7513 26.1781 40.7845C25.1258 41.7586 24.1425 42.1504 23.0573 42.1105C23.0204 42.1092 22.9836 42.1086 22.9465 42.1086C21.2963 42.1086 19.5652 40.9421 18.8231 37.2641C18.0916 33.639 18.6554 28.407 21.2039 22.8406C24.6422 15.3308 29.5493 9.90711 31.3387 8.56518ZM132.604 10.1088C131.992 9.55804 131.013 9.95634 130.96 10.7784L130.826 12.843C130.811 13.0641 130.724 13.2739 130.575 13.4386L129.192 14.9772C128.641 15.5898 129.039 16.5677 129.862 16.6212L131.926 16.7553C132.147 16.7698 132.357 16.8581 132.522 17.0062L134.061 18.3894C134.673 18.9401 135.651 18.5419 135.704 17.7198L135.839 15.6551C135.853 15.4341 135.941 15.2244 136.089 15.0596L137.473 13.521C138.023 12.9083 137.625 11.9305 136.803 11.877L134.738 11.7428C134.516 11.7284 134.307 11.6401 134.143 11.492L132.604 10.1088ZM97.9396 31.4446C98.5936 30.2399 99.3021 29.2348 99.9768 28.4875C100.348 28.1288 100.716 27.7862 101.081 27.4615C103.729 25.3026 105.784 24.3625 107.288 23.996C108.987 23.6529 110.286 23.9085 110.984 24.2088L111.013 24.2208C111.094 24.2546 111.584 24.4903 112.003 25.0174C112.362 25.4696 112.814 26.3085 112.69 27.8929C112.386 31.797 109.811 35.1667 106.392 37.6893C104.714 38.9269 102.934 39.88 101.353 40.5152C99.7069 41.1766 98.507 41.4021 97.9533 41.4021C96.5892 41.4021 96.2898 40.9534 96.1249 40.6327C95.8064 40.0142 95.6258 38.7875 95.9549 36.9346C96.2698 35.1622 96.9866 33.2009 97.9396 31.4446ZM71.576 34.627C70.1059 35.1609 68.727 35.473 67.4933 35.6002C68.1726 30.6425 71.7473 25.8657 77.2816 24.957C79.9469 24.5194 80.8876 25.3132 81.082 25.5676C81.2215 25.7503 81.566 26.4465 80.6846 27.8063C78.7401 30.8056 75.2731 33.284 71.576 34.627ZM115.223 55.7295C115.241 54.0669 116.603 52.7332 118.265 52.7506C133.193 52.9072 148.142 53.9579 163.153 56.248C164.797 56.4986 165.926 58.0343 165.675 59.6781C165.424 61.3219 163.889 62.4509 162.244 62.2003C147.552 59.9591 132.89 58.9255 118.202 58.7716C116.54 58.7542 115.206 57.392 115.223 55.7295ZM78.531 56.6722C78.5905 58.334 77.2916 59.7293 75.6301 59.7885C34.1401 61.2735 14.0248 66.6611 5.14178 69.0406C4.77949 69.1376 4.43591 69.2295 4.11033 69.3162C2.5034 69.7433 0.85443 68.787 0.427241 67.18C5.40912e-05 65.5729 0.956414 63.9241 2.56334 63.497C2.88236 63.412 3.21778 63.3223 3.57019 63.2279C12.7112 60.782 33.275 55.2792 75.4146 53.7712C77.0765 53.7117 78.4718 55.0106 78.531 56.6722ZM98.7919 57.4495C100.036 57.0888 101.242 56.6741 102.411 56.2141C102.209 56.6152 102.007 57.0106 101.803 57.3993C99.7788 61.2606 97.7232 64.3412 95.7004 66.3984C93.6508 68.4829 91.9942 69.1643 90.7054 69.1224C88.1961 69.0412 87.0835 67.8004 86.6299 66.4657C86.0823 64.855 86.4998 63.1523 87.2224 62.3538C87.2816 62.2882 87.3378 62.2203 87.391 62.1504C87.8052 61.6029 88.4708 61.0228 90.207 60.2705C92.0036 59.4914 94.6433 58.6524 98.7919 57.4495Z">
</path>
<path fill-rule="evenodd" fill="rgba(0, 0, 0, 0.04)" d="M40.621 25.8441C41.5744 24.3778 42.2725 23.2497 42.7338 22.4673C42.9666 22.073 43.1543 21.741 43.2874 21.4867C43.3476 21.3718 43.43 21.2091 43.5002 21.0425C43.5253 20.9836 43.6109 20.7802 43.6732 20.5202L43.6741 20.5158L43.6741 20.5157C43.6969 20.4206 43.7895 20.0341 43.7454 19.54C43.7227 19.2829 43.6433 18.7441 43.2797 18.177C42.8495 17.506 42.1424 16.9949 41.2813 16.8384C40.5491 16.7053 39.9681 16.8763 39.6937 16.9778C39.395 17.0886 39.1769 17.2235 39.0604 17.3015C38.8279 17.457 38.668 17.6113 38.6065 17.6721C38.4654 17.8113 38.3617 17.9401 38.3188 17.9942C38.2155 18.1244 38.1178 18.2632 38.0409 18.376C37.8763 18.6169 37.6689 18.9414 37.427 19.3348C36.9386 20.1302 36.2555 21.2975 35.4032 22.8367C34.9299 23.6915 34.4867 24.5824 34.0806 25.4976C33.4962 26.7801 32.9372 28.1287 32.3937 29.4409L32.3435 29.562C31.3924 31.8591 30.465 34.0989 29.4276 36.1056C28.3629 38.1652 27.294 39.7513 26.1781 40.7845C25.1258 41.7586 24.1425 42.1504 23.0573 42.1105C23.0204 42.1092 22.9836 42.1086 22.9465 42.1086C21.2963 42.1086 19.5652 40.9421 18.8231 37.2641C18.0916 33.639 18.6554 28.407 21.2039 22.8406C24.6422 15.3308 29.5493 9.90711 31.3387 8.56518C32.6689 7.56751 32.9385 5.68043 31.9408 4.35024C30.9431 3.02006 29.0561 2.75048 27.7259 3.74812C24.968 5.81647 19.4905 12.1185 15.7292 20.3341C12.7758 26.7847 11.8844 33.3187 12.9207 38.455C13.9431 43.5226 17.1854 48.1004 22.8914 48.1295C25.8969 48.2239 28.3472 46.9822 30.269 45.2029C30.8367 44.6771 31.3658 44.0985 31.8605 43.4835C32.0951 43.1918 32.322 42.8919 32.5417 42.5856C32.6929 42.9256 32.8621 43.2583 33.0506 43.5819C33.2585 43.9391 33.49 44.2852 33.7467 44.6178C35.3403 46.6818 37.6817 47.9252 40.5795 48.2008C44.1451 48.5396 46.9727 46.7544 49.061 44.5482C51.125 42.3678 52.7956 39.4508 54.1842 36.6306C54.2633 36.4699 54.342 36.3085 54.4204 36.1463C54.5954 35.7838 54.7685 35.4178 54.9395 35.0505C55.1324 35.3994 55.3403 35.7413 55.5632 36.0747C56.6504 37.7012 58.0936 39.1243 59.8887 40.1624C60.6578 40.607 61.4814 40.9451 62.3431 41.1887C63.0328 42.8191 64.0945 44.305 65.5055 45.4902C68.6584 48.1389 73.175 48.9888 78.2841 47.2654C82.1376 45.9655 85.6802 43.1931 88.832 40.1802C89.1482 39.878 89.4604 39.5733 89.7687 39.2675C89.7852 39.6972 89.8231 40.1267 89.8862 40.5522C90.0319 41.5346 90.3117 42.4958 90.7713 43.3888C92.1173 46.0036 94.6784 47.4234 97.9533 47.4234C99.6072 47.4234 101.628 46.8938 103.598 46.1023C104.45 45.76 105.337 45.3506 106.235 44.8762C106.685 44.6381 107.139 44.3836 107.592 44.113C107.408 44.6052 107.222 45.095 107.035 45.582C106.777 46.2542 106.516 46.921 106.252 47.5812C103.52 49.2545 100.465 50.695 97.1146 51.6663C93.0119 52.8562 90.0126 53.7919 87.8118 54.7459C85.597 55.706 83.9301 56.7918 82.6683 58.4142C80.3431 61.0686 79.7998 65.0822 80.9287 68.4035C82.1661 72.0435 85.424 74.9758 90.5106 75.1407C94.2155 75.2605 97.404 73.2537 99.9938 70.6201C102.61 67.959 104.988 64.2914 107.136 60.1949C108.524 57.5458 109.851 54.6496 111.108 51.6199C116.968 47.686 121.33 42.9428 124.023 39.3892C124.306 39.0145 124.572 38.653 124.819 38.3071C124.897 38.7629 124.996 39.1947 125.115 39.6017C125.181 39.8267 125.253 40.0442 125.331 40.254C125.825 41.5881 126.689 42.9486 128.081 43.6875C128.812 44.0752 129.715 44.2956 130.686 44.1428C131.667 43.9882 132.479 43.4905 133.067 42.8485C133.615 42.2521 134.28 41.4054 135.002 40.4318C135.276 40.0621 135.558 39.6741 135.845 39.2746C135.894 39.7407 135.968 40.2059 136.071 40.6665C136.336 41.8557 136.794 43.0139 137.511 44.0765C139.523 47.0588 142.49 48.381 145.603 48.2225C148.543 48.073 151.362 46.6319 153.61 44.6519C154.858 43.553 154.98 41.6506 153.881 40.4025C152.782 39.1545 150.88 39.0333 149.632 40.1322C148.084 41.4948 146.508 42.1474 145.296 42.2092C144.258 42.2621 143.315 41.9129 142.501 40.7076C141.686 39.4993 141.535 37.2973 142.232 34.4889C142.908 31.7701 144.136 29.4692 144.773 28.6974C147.584 25.2953 149.921 25.108 151.183 25.2678C151.828 25.3493 152.354 25.5461 152.699 25.7129C152.872 25.8154 153.009 25.9091 153.107 25.9762L153.116 25.9831C153.177 26.0247 153.281 26.0947 153.407 26.1659C153.454 26.1927 153.602 26.2758 153.798 26.3539C153.879 26.3855 154.124 26.4814 154.454 26.5324C154.617 26.5576 154.947 26.5962 155.358 26.5351C155.767 26.4743 156.516 26.2718 157.142 25.5838C157.811 24.8499 157.949 23.9986 157.925 23.427C157.902 22.9098 157.752 22.5241 157.674 22.3458C157.515 21.9842 157.32 21.7402 157.266 21.6723C157.122 21.4904 156.985 21.3646 156.947 21.3279C156.835 21.2248 156.731 21.1444 156.672 21.0992C156.42 20.9062 156.075 20.6853 155.67 20.4693C155.642 20.4549 155.615 20.4403 155.587 20.4257C154.524 19.8251 152.729 19.0467 150.378 19.0235C146.923 18.9893 142.93 20.5735 138.753 25.0824C137.375 26.5689 135.322 29.5184 133.48 32.1645L133.404 32.2737C132.801 33.1407 132.218 33.9768 131.671 34.7517C131.312 35.2607 130.968 35.7433 130.644 36.1909C130.623 35.675 130.637 35.0761 130.701 34.3897C130.815 33.1774 131.089 31.6925 131.614 29.9108C131.982 28.6675 132.261 27.6632 132.452 26.8811C132.624 26.1793 132.788 25.4243 132.809 24.8029C132.817 24.6281 132.817 24.3581 132.767 24.0485C132.728 23.7996 132.603 23.1581 132.102 22.5385C131.447 21.7265 130.429 21.3013 129.389 21.4082C128.596 21.4897 128.054 21.8538 127.85 21.9995C127.409 22.3168 127.105 22.7028 126.976 22.8681C126.803 23.0926 126.635 23.3391 126.482 23.5752C125.894 24.4861 125.089 25.941 124.22 27.5111L124.104 27.7192C123.236 29.2887 122.258 31.0572 121.225 32.8187C120.471 34.1044 119.046 36.1503 117.01 38.4564C116.499 39.0359 115.949 39.6319 115.361 40.2363C115.618 39.4778 115.871 38.7195 116.12 37.963C116.801 35.8897 117.449 33.8303 118.061 31.8165C119.331 27.641 118.823 24.4281 117.37 22.1031C116 19.9115 114.075 18.9761 113.349 18.6712C111.62 17.9303 109.33 17.4549 106.505 18.0049C106.318 18.0413 106.13 18.0819 105.94 18.127C103.515 18.6469 100.884 19.8376 98.2574 21.961C97.9172 22.236 97.5733 22.5284 97.2261 22.8355C97.2124 22.847 97.1983 22.8584 97.1842 22.8699C96.626 23.3088 96.0898 23.8158 95.5803 24.3726C93.8789 26.0354 92.1294 27.9473 90.4059 29.8308C89.3483 30.9866 88.3006 32.1317 87.2796 33.202C83.4463 37.2209 79.842 40.3852 76.3593 41.5599C74.3904 42.2243 72.8129 42.2633 71.5795 41.9691C70.958 41.8209 70.4238 41.5881 69.971 41.3081C70.5072 41.2036 71.0404 41.0794 71.5675 40.938C72.2689 40.7497 72.9594 40.5307 73.6317 40.2865C78.2633 38.6042 82.9248 35.4195 85.7372 31.0816C87.574 28.2481 87.9801 24.6785 85.8669 21.9122C83.8083 19.2175 80.1811 18.3791 76.3061 19.0153C68.406 20.3124 63.4692 26.4952 61.9029 32.8351C61.806 33.2272 61.722 33.6199 61.651 34.0121C61.3497 33.7274 61.0712 33.4143 60.8175 33.0775C60.0419 32.0473 59.4992 30.7943 59.2511 29.447C58.8169 27.0901 59.3515 24.8471 60.634 23.3852C61.7178 22.1499 61.6108 20.2737 60.3935 19.1696C59.1762 18.0656 57.2985 18.1418 56.1745 19.3406C54.719 20.8932 53.4833 23.4954 52.4106 25.8941C52.0413 26.7201 51.6767 27.559 51.309 28.4045C50.5065 30.2498 49.6903 32.1269 48.7824 33.9706C47.4618 36.6527 46.112 38.9049 44.688 40.4088C43.2891 41.8872 42.1618 42.3026 41.1492 42.2062C39.7382 42.0724 38.9872 41.5522 38.5128 40.938C37.9733 40.239 37.5605 39.105 37.4736 37.4491C37.3307 34.7275 38.1108 31.2728 39.5616 27.9894C39.9165 27.2096 40.2667 26.4917 40.621 25.8441ZM31.1408 4.95025C31.8071 5.83858 31.627 7.09892 30.7386 7.76518Q25.0545 12.0282 20.2946 22.4243Q16.4867 30.7415 17.8429 37.4619Q18.9822 43.1086 22.9465 43.1086Q22.9857 43.1086 23.0205 43.1098Q25.0574 43.1847 26.8575 41.5183Q28.5798 39.9235 30.3159 36.5648Q31.3725 34.5211 33.2667 29.9465L33.2676 29.9443L33.3176 29.8235Q34.4087 27.1892 34.9946 25.9032Q35.5849 24.5729 36.278 23.3212Q37.4294 21.2419 38.2789 19.8585Q38.6365 19.2768 38.8669 18.9396Q38.9999 18.7447 39.1022 18.6157Q39.2041 18.4872 39.3094 18.3834Q39.4513 18.2431 39.6169 18.1323Q39.8159 17.999 40.041 17.9156Q40.5596 17.7236 41.1025 17.8223Q41.965 17.9791 42.4379 18.7168Q42.7057 19.1344 42.7494 19.6289Q42.7789 19.9602 42.7017 20.2827L42.7006 20.2872L42.6998 20.2909Q42.6557 20.4734 42.5786 20.6542Q42.5129 20.8103 42.4014 21.023Q42.2145 21.38 41.8723 21.9594Q41.0777 23.3073 39.7826 25.299L39.7619 25.3308L39.7437 25.3642Q39.2323 26.2989 38.6469 27.5852Q36.2404 33.0318 36.4749 37.5015Q36.6119 40.1118 37.7214 41.5493Q38.8351 42.9912 41.0544 43.2017Q43.2262 43.4085 45.4142 41.0964Q47.444 38.9526 49.6795 34.4124Q50.5981 32.547 52.2247 28.8063L53.3235 26.3023Q55.4257 21.6015 56.904 20.0246C57.6547 19.2239 58.9087 19.173 59.7217 19.9104C60.5347 20.6477 60.6062 21.9007 59.8822 22.7257Q57.4969 25.4448 58.2676 29.628Q58.8388 32.7304 60.9641 34.7389L62.3061 36.0071L62.635 34.1902Q63.571 29.0194 67.033 25.1743Q70.861 20.9227 76.4681 20.0021Q82.4047 19.0274 85.0722 22.5192Q87.7898 26.0767 84.8981 30.5376Q81.0034 36.5449 73.2902 39.3466Q71.5342 39.9846 69.7797 40.3265L67.2723 40.8152L69.4451 42.1586Q72.3641 43.9635 76.6789 42.5075Q81.2599 40.9622 88.0031 33.8922Q89.0272 32.8187 91.1301 30.5208L91.1437 30.5059Q94.5965 26.7323 96.2792 25.0878L96.2992 25.0683L96.3181 25.0477Q97.0508 24.2469 97.8191 23.6425L97.8661 23.6039L97.875 23.5965L97.8775 23.5944L97.8887 23.5845Q98.4068 23.1262 98.8862 22.7386Q102.381 19.9126 106.15 19.1048L106.161 19.1025L106.171 19.0999Q106.435 19.0372 106.696 18.9864Q110.031 18.3372 112.962 19.5931Q115.213 20.5389 116.522 22.6332Q118.733 26.1701 117.105 31.5256Q115.759 35.9509 114.414 39.915L116.078 40.9335Q119.977 36.9241 122.088 33.3244Q123.136 31.5371 124.979 28.2042L125.095 27.9954Q126.752 25.0011 127.322 24.1182Q127.566 23.7416 127.766 23.4823Q128.101 23.0508 128.433 22.8122Q128.922 22.4614 129.491 22.403C130.192 22.3309 130.882 22.6182 131.324 23.1666Q131.685 23.6139 131.78 24.2058Q131.822 24.4723 131.81 24.7681Q131.788 25.3885 131.481 26.6437Q131.209 27.7567 130.655 29.6277Q129.532 33.4343 129.645 36.2313L129.762 39.1148L131.454 36.7774Q132.318 35.5851 134.226 32.8437L134.301 32.7358Q138.154 27.1993 139.486 25.762Q144.854 19.9689 150.368 20.0234Q152.887 20.0483 155.095 21.2963L155.108 21.3037L155.199 21.3517Q155.718 21.6284 156.064 21.8926Q156.184 21.9847 156.257 22.0517L156.27 22.0643Q156.394 22.1816 156.484 22.2954L156.485 22.2961Q156.652 22.5065 156.758 22.7472Q156.909 23.0926 156.926 23.469Q156.961 24.2981 156.403 24.9106Q155.921 25.4404 155.212 25.5459Q154.909 25.5909 154.607 25.5442Q154.384 25.5097 154.168 25.4251Q154.029 25.3695 153.898 25.2948Q153.795 25.2362 153.697 25.1687L153.674 25.1527Q153.418 24.9761 153.208 24.8523L153.172 24.8309L153.135 24.8127Q152.278 24.3982 151.309 24.2757Q147.525 23.7967 144.002 28.0608Q142.281 30.1461 141.261 34.2479Q140.098 38.9333 141.672 41.2672Q143.062 43.3243 145.347 43.2079Q147.793 43.0832 150.293 40.8827C151.126 40.1491 152.397 40.2302 153.13 41.0633C153.864 41.8967 153.783 43.1676 152.95 43.9015Q149.399 47.0282 145.552 47.2238Q140.998 47.4558 138.34 43.517Q137.104 41.6865 136.839 39.17L136.565 36.5573L135.033 38.6914Q133.26 41.1598 132.329 42.1732Q131.582 42.9893 130.531 43.1549Q129.513 43.315 128.55 42.8043Q127.046 42.0058 126.268 39.906Q125.969 39.1009 125.804 38.138L125.398 35.7717L124.004 37.7265Q118.49 45.4603 110.551 50.7897L110.301 50.9578L110.185 51.2365Q108.214 55.9833 106.25 59.7306Q102.769 66.3712 99.2808 69.9189Q94.9874 74.2849 90.5431 74.1413Q83.8618 73.9246 81.8755 68.0817Q80.1014 62.8621 83.4205 59.0731L83.4397 59.0512L83.4577 59.0281Q84.9886 57.0596 88.2095 55.6634Q90.8105 54.5359 97.3931 52.6268Q102.209 51.2307 106.775 48.434L107.058 48.2606L107.181 47.9525Q107.854 46.2685 108.529 44.4629L109.526 41.7928L107.079 43.2545Q105.177 44.3904 103.225 45.1745Q100.117 46.4234 97.9533 46.4234Q93.4581 46.4234 91.6604 42.9312C91.0753 41.7943 90.817 40.5068 90.7679 39.2291L90.6806 36.954L89.0643 38.5576Q82.9322 44.6421 77.9645 46.3179Q70.8872 48.7052 66.1487 44.7245Q64.2499 43.1295 63.2641 40.7991L63.077 40.357L62.6151 40.2264C61.8379 40.0067 61.0884 39.7008 60.3893 39.2967Q57.509 37.6311 55.8147 34.5667L54.8631 32.8456L54.033 34.6284Q53.6407 35.4708 53.2871 36.1888Q50.783 41.2744 48.3348 43.8607Q44.7981 47.5971 40.6742 47.2053Q36.7173 46.8289 34.5383 44.0067Q33.9015 43.1819 33.4553 42.1791L32.7459 40.5847L31.729 42.0029Q30.6941 43.4462 29.5896 44.4691Q26.5912 47.2452 22.9227 47.13L22.9096 47.1296L22.8965 47.1296Q15.6836 47.0928 13.9009 38.2572Q12.2865 30.2556 16.6384 20.7503Q21.8238 9.42454 28.3259 4.54812C29.2142 3.88186 30.4745 4.06192 31.1408 4.95025ZM130.96 10.7784C131.013 9.95634 131.992 9.55804 132.604 10.1088L134.143 11.492C134.307 11.6401 134.516 11.7284 134.738 11.7428L136.803 11.877C137.625 11.9305 138.023 12.9083 137.473 13.521L136.089 15.0596C135.941 15.2244 135.853 15.4341 135.839 15.6551L135.704 17.7198C135.651 18.5419 134.673 18.9401 134.061 18.3894L132.522 17.0062C132.357 16.8581 132.147 16.7698 131.926 16.7553L129.862 16.6212C129.039 16.5677 128.641 15.5898 129.192 14.9772L130.575 13.4386C130.724 13.2739 130.811 13.0641 130.826 12.843L130.96 10.7784ZM131.956 10.8715L131.824 12.9081C131.795 13.3543 131.616 13.7781 131.316 14.1096L129.954 15.6251L131.991 15.7574C132.436 15.7865 132.859 15.9643 133.191 16.2627L134.708 17.6267L134.841 15.59C134.87 15.1454 135.047 14.7232 135.345 14.3917L136.71 12.8731L134.673 12.7407C134.228 12.7118 133.806 12.5338 133.474 12.2356L131.956 10.8715ZM99.2345 27.8174Q98.0714 29.1057 97.0607 30.9675L97.0606 30.9677Q95.4826 33.876 94.9703 36.7597Q94.4664 39.5962 95.2356 41.09Q95.9103 42.4021 97.9533 42.4021Q99.339 42.4021 101.725 41.4432Q104.496 40.3304 106.985 38.494Q113.226 33.8903 113.687 27.9706Q113.86 25.749 112.786 24.3955Q112.171 23.6217 111.399 23.2983L111.379 23.2901Q109.574 22.514 107.09 23.0158L107.07 23.0197L107.051 23.0245Q104.041 23.7582 100.449 26.6864L100.433 26.7L100.416 26.7144Q99.8749 27.1961 99.2823 27.768L99.2576 27.7919L99.2345 27.8174ZM67.5959 36.5949Q69.6778 36.3803 71.9173 35.567Q78.363 33.2254 81.5237 28.3502Q82.8739 26.2673 81.8766 24.9604Q80.674 23.3867 77.1196 23.9702Q72.7766 24.6833 69.8111 28.1053Q67.079 31.2581 66.5026 35.4644L66.3298 36.7254L67.5959 36.5949ZM99.9768 28.4875C99.3021 29.2348 98.5936 30.2399 97.9396 31.4446C96.9866 33.2009 96.2698 35.1622 95.9549 36.9346C95.6258 38.7875 95.8064 40.0142 96.1249 40.6327C96.2898 40.9534 96.5892 41.4021 97.9533 41.4021C98.507 41.4021 99.7069 41.1766 101.353 40.5152C102.934 39.88 104.714 38.9269 106.392 37.6893C109.811 35.1667 112.386 31.797 112.69 27.8929C112.814 26.3085 112.362 25.4696 112.003 25.0174C111.584 24.4903 111.094 24.2546 111.013 24.2208L110.984 24.2088C110.286 23.9085 108.987 23.6529 107.288 23.996C105.784 24.3625 103.729 25.3026 101.081 27.4615C100.716 27.7862 100.348 28.1288 99.9768 28.4875ZM68.5254 35.4556C69.4798 35.2879 70.5036 35.0165 71.576 34.627C75.2731 33.284 78.7401 30.8056 80.6846 27.8063C81.566 26.4465 81.2215 25.7503 81.082 25.5676C80.8876 25.3132 79.9469 24.5194 77.2816 24.957C72.131 25.8027 68.6777 29.9988 67.676 34.5729C67.6014 34.9136 67.5404 35.2565 67.4933 35.6002C67.8271 35.5658 68.1715 35.5178 68.5254 35.4556ZM118.265 52.7506C116.603 52.7332 115.241 54.0669 115.223 55.7295C115.206 57.392 116.54 58.7542 118.202 58.7716C132.89 58.9255 147.552 59.9591 162.244 62.2003C163.889 62.4509 165.424 61.3219 165.675 59.6781C165.926 58.0343 164.797 56.4986 163.153 56.248C148.142 53.9579 133.193 52.9072 118.265 52.7506ZM118.213 57.7717C117.102 57.76 116.212 56.8504 116.223 55.7399C116.235 54.6296 117.145 53.7389 118.255 53.7505Q141.769 53.9972 163.002 57.2366C164.101 57.404 164.854 58.4295 164.687 59.5277C164.519 60.625 163.493 61.379 162.395 61.2117Q141.437 58.0151 118.213 57.7717ZM75.6301 59.7885C77.2916 59.7293 78.5905 58.334 78.531 56.6722C78.4718 55.0106 77.0765 53.7117 75.4146 53.7712C33.275 55.2792 12.7112 60.782 3.57019 63.2279C3.21778 63.3223 2.88236 63.412 2.56334 63.497C0.956414 63.9241 5.40912e-05 65.5729 0.427241 67.18C0.85443 68.787 2.5034 69.7433 4.11033 69.3162C4.43591 69.2295 4.77949 69.1376 5.14178 69.0406C14.0248 66.6611 34.1401 61.2735 75.6301 59.7885ZM102.045 55.2836Q100.293 55.9729 98.5134 56.489Q92.1762 58.3265 89.8094 59.3529Q87.4943 60.3561 86.5958 61.5441Q86.5395 61.6179 86.4809 61.6829Q84.6395 63.7178 85.6831 66.7875Q86.7733 69.9956 90.6729 70.1219Q93.356 70.209 96.4135 67.0995Q99.484 63.9766 102.689 57.8633Q103 57.2694 103.304 56.6628L104.478 54.3258L102.045 55.2836ZM75.4504 54.7706C76.56 54.7308 77.4921 55.5982 77.5317 56.7078L77.5317 56.7079C77.5714 57.8175 76.704 58.7496 75.5944 58.7892Q33.9885 60.2781 4.88303 68.0746L3.85213 68.3501C2.78021 68.635 1.67896 67.9963 1.39368 66.9231C1.10842 65.8499 1.7471 64.7487 2.82022 64.4634L3.82835 64.194L3.82965 64.1937Q33.4253 56.2745 75.4504 54.7706ZM101.023 56.7322C100.293 56.99 99.5495 57.2298 98.7919 57.4495C94.6433 58.6524 92.0036 59.4914 90.207 60.2705C88.4708 61.0228 87.8052 61.6029 87.391 62.1504C87.3378 62.2203 87.2816 62.2882 87.2224 62.3538C86.4998 63.1523 86.0823 64.855 86.6299 66.4657C87.0835 67.8004 88.1961 69.0412 90.7054 69.1224C91.9942 69.1643 93.6508 68.4829 95.7004 66.3984C97.6982 64.3665 99.7281 61.3364 101.728 57.5418C101.753 57.4944 101.778 57.447 101.803 57.3993C102.007 57.0106 102.209 56.6152 102.411 56.2141C101.954 56.3939 101.491 56.5668 101.023 56.7322Z">
</path>
</mask>
<filter id="filter_1" x="69.24841614107413" y="0" width="66.46935424128924" height="91.04979094783224" filterUnits="userSpaceOnUse" color-interpolation-filters="sRGB">
<feFlood flood-opacity="0" result="feFloodId_1"/>
<feBlend mode="normal" in="SourceGraphic" in2="feFloodId_1" result="shape"/>
<feGaussianBlur result="gaussian_blur_1" stdDeviation="1.5389389021191884"/>
</filter>
</defs>
</svg>